<svg width="1280" height="832" viewBox="0 0 1280 832" fill="none" xmlns="http://www.w3.org/2000/svg">
<g clip-path="url(#clip0_163_140)">
<path d="M1280 449.973C1228.66 425.291 1177.17 400.469 1117.16 383.413C1057 366.496 988.16 357.205 953.6 318.24C919.182 279.136 919.182 210.496 902.4 152.533C885.618 94.432 852.053 47.2853 818.489 0H1280V449.973Z" fill="#FFA453"/>
<path d="M1280 337.515C1241.46 318.933 1202.92 300.352 1157.83 287.595C1112.75 274.837 1061.12 267.904 1035.24 238.645C1009.49 209.387 1009.49 157.803 996.835 114.4C984.32 70.8587 959.004 35.4987 933.831 0H1280V337.515Z" fill="#FF963C"/>
<path d="M1280 224.917C1254.26 212.576 1228.66 200.235 1198.51 191.776C1168.5 183.179 1134.08 178.603 1116.87 159.051C1099.66 139.637 1099.66 105.248 1091.27 76.2667C1082.88 47.2853 1066.1 23.5733 1049.32 0H1280V224.917Z" fill="#FF8821"/>
<path d="M1280 112.459C1267.2 106.357 1254.26 100.117 1239.32 95.8187C1224.25 91.6587 1207.04 89.3013 1198.36 79.5947C1189.83 69.7493 1189.83 52.5547 1185.56 38.1333C1181.44 23.5733 1173.05 11.7867 1164.66 0H1280V112.459Z" fill="#FF810E"/>
<path d="M0 269.568C57.6 323.925 115.2 378.283 182.329 402.827C249.458 427.371 326.116 421.963 389.689 452.053C453.262 482.144 503.893 547.595 532.907 616.789C562.062 685.984 569.458 758.923 576.853 832H0V269.568Z" fill="#FFB16A"/>
<path d="M0 382.027C46.08 425.568 92.16 469.109 145.92 488.661C199.538 508.213 260.836 504.053 311.751 528.043C362.667 552.032 403.2 604.448 426.382 659.776C449.564 715.243 455.538 773.621 461.511 832H0V382.027Z" fill="#FFA453"/>
<path d="M0 494.485C34.56 527.211 69.12 559.797 109.369 574.496C149.618 589.195 195.698 586.005 233.813 604.032C271.929 622.059 302.364 661.301 319.716 702.901C337.209 744.363 341.618 788.181 346.169 832H0V494.485Z" fill="#FF963C"/>
<path d="M0 607.083C23.04 628.715 46.08 650.485 72.96 660.331C99.84 670.176 130.418 667.957 155.876 680.021C181.333 692.085 201.529 718.155 213.191 745.888C224.853 773.621 227.84 802.741 230.684 832H0V607.083Z" fill="#FF8821"/>
<path d="M0 719.541C11.52 730.357 23.04 741.312 36.4089 746.165C49.92 751.019 65.28 750.048 77.9378 756.011C90.5956 761.973 100.836 775.147 106.524 789.013C112.356 802.741 113.92 817.44 115.342 832H0V719.541Z" fill="#FF810E"/>
</g>
<defs>
<clipPath id="clip0_163_140">
<rect width="1280" height="832" fill="white"/>
</clipPath>
</defs>
</svg>
