<svg id="visual" viewBox="0 0 900 600" width="900" height="600" xmlns="http://www.w3.org/2000/svg" xmlns:xlink="http://www.w3.org/1999/xlink" version="1.1"><path d="M0 231L21.5 217.7C43 204.3 86 177.7 128.8 179.3C171.7 181 214.3 211 257.2 218.8C300 226.7 343 212.3 385.8 200.8C428.7 189.3 471.3 180.7 514.2 182.2C557 183.7 600 195.3 642.8 204.3C685.7 213.3 728.3 219.7 771.2 216.3C814 213 857 200 878.5 193.5L900 187L900 0L878.5 0C857 0 814 0 771.2 0C728.3 0 685.7 0 642.8 0C600 0 557 0 514.2 0C471.3 0 428.7 0 385.8 0C343 0 300 0 257.2 0C214.3 0 171.7 0 128.8 0C86 0 43 0 21.5 0L0 0Z" fill="#ffffff"></path><path d="M0 196L21.5 192.3C43 188.7 86 181.3 128.8 180.2C171.7 179 214.3 184 257.2 188.7C300 193.3 343 197.7 385.8 193.2C428.7 188.7 471.3 175.3 514.2 173.3C557 171.3 600 180.7 642.8 187.2C685.7 193.7 728.3 197.3 771.2 193.3C814 189.3 857 177.7 878.5 171.8L900 166L900 0L878.5 0C857 0 814 0 771.2 0C728.3 0 685.7 0 642.8 0C600 0 557 0 514.2 0C471.3 0 428.7 0 385.8 0C343 0 300 0 257.2 0C214.3 0 171.7 0 128.8 0C86 0 43 0 21.5 0L0 0Z" fill="#ffdfc6"></path><path d="M0 127L21.5 127.2C43 127.3 86 127.7 128.8 129.8C171.7 132 214.3 136 257.2 140C300 144 343 148 385.8 146.7C428.7 145.3 471.3 138.7 514.2 139.5C557 140.3 600 148.7 642.8 145.2C685.7 141.7 728.3 126.3 771.2 122.7C814 119 857 127 878.5 131L900 135L900 0L878.5 0C857 0 814 0 771.2 0C728.3 0 685.7 0 642.8 0C600 0 557 0 514.2 0C471.3 0 428.7 0 385.8 0C343 0 300 0 257.2 0C214.3 0 171.7 0 128.8 0C86 0 43 0 21.5 0L0 0Z" fill="#ffc08e"></path><path d="M0 75L21.5 78C43 81 86 87 128.8 88.7C171.7 90.3 214.3 87.7 257.2 90.7C300 93.7 343 102.3 385.8 99.5C428.7 96.7 471.3 82.3 514.2 75C557 67.7 600 67.3 642.8 65.7C685.7 64 728.3 61 771.2 65.3C814 69.7 857 81.3 878.5 87.2L900 93L900 0L878.5 0C857 0 814 0 771.2 0C728.3 0 685.7 0 642.8 0C600 0 557 0 514.2 0C471.3 0 428.7 0 385.8 0C343 0 300 0 257.2 0C214.3 0 171.7 0 128.8 0C86 0 43 0 21.5 0L0 0Z" fill="#ffa255"></path><path d="M0 54L21.5 56.3C43 58.7 86 63.3 128.8 62.7C171.7 62 214.3 56 257.2 53C300 50 343 50 385.8 52.5C428.7 55 471.3 60 514.2 56.8C557 53.7 600 42.3 642.8 43.2C685.7 44 728.3 57 771.2 61.7C814 66.3 857 62.7 878.5 60.8L900 59L900 0L878.5 0C857 0 814 0 771.2 0C728.3 0 685.7 0 642.8 0C600 0 557 0 514.2 0C471.3 0 428.7 0 385.8 0C343 0 300 0 257.2 0C214.3 0 171.7 0 128.8 0C86 0 43 0 21.5 0L0 0Z" fill="#ff810e"></path></svg>